<svg width="116" height="28" viewBox="0 0 116 28" fill="none" xmlns="http://www.w3.org/2000/svg">
<path d="M9.05646 24.2909C10.0416 24.2909 10.8762 24.1951 11.5603 24.0036C12.2718 23.7847 12.7917 23.5794 13.1201 23.3879V18.0928L8.5639 18.5444C7.30513 18.6538 6.34737 18.9411 5.69062 19.4063C5.06124 19.8442 4.74655 20.5009 4.74655 21.3766C4.74655 22.2796 5.10229 22.9911 5.81377 23.511C6.52524 24.0309 7.60614 24.2909 9.05646 24.2909ZM8.93332 7.21545C11.4782 7.21545 13.4895 7.77643 14.9672 8.89837C16.4722 9.99295 17.2248 11.7306 17.2248 14.1113V23.6752C17.2248 24.3046 17.0879 24.7972 16.8143 25.1529C16.5407 25.5086 16.1576 25.8233 15.665 26.097C14.9535 26.5074 14.0231 26.8495 12.8738 27.1231C11.7519 27.4242 10.4794 27.5747 9.05646 27.5747C6.4021 27.5747 4.3224 27.0684 2.81735 26.0559C1.33967 25.0161 0.600824 23.4973 0.600824 21.4997C0.600824 19.6937 1.18916 18.3118 2.36584 17.354C3.54251 16.3689 5.21175 15.7805 7.37354 15.589L13.1201 15.0143V14.0703C13.1201 12.8389 12.7233 11.9495 11.9297 11.4022C11.1362 10.8549 10.0553 10.5813 8.68704 10.5813C7.59246 10.5813 6.52524 10.7318 5.48539 11.0328C4.4729 11.3338 3.56987 11.6759 2.7763 12.059C2.53002 11.8401 2.31111 11.5801 2.11956 11.2791C1.928 10.9507 1.83223 10.6087 1.83223 10.2529C1.83223 9.40461 2.29742 8.76155 3.22782 8.32372C3.99402 7.96798 4.86969 7.69433 5.85481 7.50278C6.8673 7.31123 7.89347 7.21545 8.93332 7.21545ZM31.9509 23.2237V9.88349H36.1788V23.5521C36.1788 24.1267 36.0556 24.5919 35.8093 24.9477C35.5631 25.3034 35.1663 25.6455 34.619 25.9738C34.017 26.3569 33.1823 26.7127 32.1151 27.041C31.0479 27.3968 29.8165 27.5747 28.4209 27.5747C26.3412 27.5747 24.5215 27.2189 22.9617 26.5074C21.4293 25.796 20.2252 24.7014 19.3496 23.2237C18.5013 21.7186 18.0771 19.8031 18.0771 17.4771C18.0771 15.0964 18.5013 13.1536 19.3496 11.6485C20.1979 10.1435 21.3609 9.03519 22.8386 8.32372C24.3162 7.58487 25.9307 7.21545 27.6821 7.21545C28.7219 7.21545 29.6934 7.35228 30.5964 7.62592C31.4994 7.89957 32.2109 8.24162 32.7308 8.65209V12.3463C32.2383 11.8811 31.6089 11.4843 30.8427 11.1559C30.0765 10.8002 29.1871 10.6223 28.1746 10.6223C27.1074 10.6223 26.1223 10.8549 25.2193 11.3201C24.3436 11.758 23.6458 12.4831 23.1259 13.4956C22.606 14.5081 22.346 15.849 22.346 17.5182C22.346 19.8168 22.8933 21.4997 23.9879 22.5669C25.0824 23.6342 26.5464 24.1678 28.3799 24.1678C29.2282 24.1678 29.926 24.072 30.4733 23.8804C31.0479 23.6889 31.5405 23.47 31.9509 23.2237ZM36.1788 10.8276H31.9509V0.36064C32.1425 0.305912 32.4161 0.237501 32.7719 0.155407C33.1276 0.0733143 33.497 0.0322681 33.8801 0.0322681C34.6737 0.0322681 35.2484 0.182773 35.6041 0.483782C35.9872 0.757427 36.1788 1.24999 36.1788 1.96147V10.8276ZM52.829 7.42069C53.431 7.42069 53.9236 7.57119 54.3067 7.8722C54.6898 8.14585 54.8813 8.58368 54.8813 9.1857C54.8813 9.5688 54.7308 10.2666 54.4298 11.2791C54.1288 12.2916 53.732 13.4819 53.2395 14.8502C52.7743 16.191 52.2543 17.6003 51.6797 19.078C51.105 20.5557 50.5167 21.9649 49.9147 23.3058C49.34 24.6467 48.8064 25.7823 48.3139 26.7127C48.1223 26.8769 47.7939 27.0137 47.3287 27.1231C46.8909 27.2326 46.412 27.2873 45.8921 27.2873C45.2901 27.2873 44.7565 27.1916 44.2913 27C43.8261 26.8358 43.5114 26.5758 43.3472 26.2201C43.0462 25.6455 42.6631 24.8382 42.1979 23.7984C41.7327 22.7585 41.2264 21.5681 40.6792 20.2273C40.1592 18.8864 39.6256 17.5045 39.0783 16.0816C38.5584 14.6312 38.0658 13.2493 37.6006 11.9358C37.1628 10.6223 36.8071 9.45934 36.5334 8.44686C36.7523 8.14585 37.067 7.89957 37.4775 7.70801C37.888 7.51646 38.3121 7.42069 38.75 7.42069C39.352 7.42069 39.8309 7.55751 40.1866 7.83116C40.5697 8.1048 40.8707 8.59736 41.0896 9.30884L43.3882 16.4099C43.6072 17.0667 43.8671 17.8329 44.1681 18.7086C44.4965 19.5842 44.8112 20.4462 45.1122 21.2945C45.4132 22.1428 45.6595 22.8543 45.851 23.4289H46.0152C46.973 20.8293 47.876 18.216 48.7243 15.589C49.6 12.9346 50.3525 10.3487 50.9819 7.83116C51.5018 7.55751 52.1175 7.42069 52.829 7.42069ZM62.2297 24.2909C63.2148 24.2909 64.0494 24.1951 64.7335 24.0036C65.445 23.7847 65.9649 23.5794 66.2933 23.3879V18.0928L61.7371 18.5444C60.4783 18.6538 59.5206 18.9411 58.8638 19.4063C58.2345 19.8442 57.9198 20.5009 57.9198 21.3766C57.9198 22.2796 58.2755 22.9911 58.987 23.511C59.6985 24.0309 60.7794 24.2909 62.2297 24.2909ZM62.1065 7.21545C64.6514 7.21545 66.6627 7.77643 68.1404 8.89837C69.6455 9.99295 70.398 11.7306 70.398 14.1113V23.6752C70.398 24.3046 70.2612 24.7972 69.9875 25.1529C69.7139 25.5086 69.3308 25.8233 68.8382 26.097C68.1267 26.5074 67.1963 26.8495 66.047 27.1231C64.9251 27.4242 63.6526 27.5747 62.2297 27.5747C59.5753 27.5747 57.4956 27.0684 55.9906 26.0559C54.5129 25.0161 53.774 23.4973 53.774 21.4997C53.774 19.6937 54.3624 18.3118 55.539 17.354C56.7157 16.3689 58.385 15.7805 60.5468 15.589L66.2933 15.0143V14.0703C66.2933 12.8389 65.8965 11.9495 65.1029 11.4022C64.3094 10.8549 63.2285 10.5813 61.8602 10.5813C60.7657 10.5813 59.6985 10.7318 58.6586 11.0328C57.6461 11.3338 56.7431 11.6759 55.9495 12.059C55.7032 11.8401 55.4843 11.5801 55.2928 11.2791C55.1012 10.9507 55.0054 10.6087 55.0054 10.2529C55.0054 9.40461 55.4706 8.76155 56.401 8.32372C57.1672 7.96798 58.0429 7.69433 59.028 7.50278C60.0405 7.31123 61.0667 7.21545 62.1065 7.21545ZM81.3478 7.21545C83.0718 7.21545 84.6316 7.59856 86.0272 8.36476C87.4228 9.1036 88.5174 10.2256 89.3109 11.7306C90.1045 13.2083 90.5013 15.0828 90.5013 17.354C90.5013 19.6526 90.0771 21.5545 89.2288 23.0595C88.4079 24.5646 87.2586 25.7002 85.7809 26.4664C84.3032 27.2052 82.5656 27.5747 80.568 27.5747C79.1176 27.5747 77.8315 27.3968 76.7096 27.041C75.5876 26.6853 74.6572 26.2885 73.9184 25.8507C73.3437 25.4402 72.9333 25.0434 72.687 24.6603C72.4407 24.2772 72.3176 23.7847 72.3176 23.1826V9.76035H76.5454V23.0595C76.9285 23.3058 77.4621 23.5521 78.1462 23.7984C78.8577 24.0446 79.6649 24.1678 80.568 24.1678C82.2646 24.1678 83.6328 23.6205 84.6726 22.5259C85.7125 21.404 86.2324 19.68 86.2324 17.354C86.2324 15.028 85.7125 13.3314 84.6726 12.2642C83.6328 11.1696 82.2919 10.6223 80.6501 10.6223C79.6376 10.6223 78.7345 10.8276 77.941 11.238C77.1474 11.6211 76.4906 12.059 75.9707 12.5515L75.4782 9.14465C76.1075 8.70682 76.9011 8.28267 77.8589 7.8722C78.844 7.43437 80.007 7.21545 81.3478 7.21545ZM76.5454 10.6634H72.3176V0.36064C72.5091 0.305912 72.7828 0.237501 73.1385 0.155407C73.4942 0.0733143 73.8773 0.0322681 74.2878 0.0322681C75.054 0.0322681 75.615 0.182773 75.9707 0.483782C76.3538 0.757427 76.5454 1.24999 76.5454 1.96147V10.6634ZM91.7981 16.1637L95.9849 16.5331V26.9179C95.8207 26.9726 95.5607 27.041 95.205 27.1231C94.8492 27.2052 94.4661 27.2463 94.0557 27.2463C93.2895 27.2463 92.7148 27.0958 92.3317 26.7948C91.976 26.4938 91.7981 26.0012 91.7981 25.3171V16.1637ZM95.9849 18.6265L91.7981 18.257V0.36064C91.9623 0.305912 92.2222 0.237501 92.578 0.155407C92.9337 0.0733143 93.3031 0.0322681 93.6863 0.0322681C94.4798 0.0322681 95.0545 0.182773 95.4102 0.483782C95.7933 0.757427 95.9849 1.24999 95.9849 1.96147V18.6265ZM100.043 19.7347L99.8375 16.6562L111.495 15.0143C111.413 13.7282 110.961 12.661 110.14 11.8127C109.319 10.937 108.156 10.4992 106.651 10.4992C105.119 10.4992 103.846 11.0465 102.834 12.1411C101.821 13.2356 101.301 14.7954 101.274 16.8204L101.356 18.3802C101.575 20.3231 102.273 21.7871 103.45 22.7722C104.626 23.7299 106.172 24.2088 108.088 24.2088C109.237 24.2088 110.291 24.0309 111.248 23.6752C112.206 23.3195 112.972 22.9364 113.547 22.5259C113.875 22.7175 114.135 22.9774 114.327 23.3058C114.546 23.6342 114.655 23.9899 114.655 24.373C114.655 24.975 114.354 25.5223 113.752 26.0149C113.15 26.5074 112.329 26.8905 111.29 27.1642C110.277 27.4378 109.128 27.5747 107.842 27.5747C105.735 27.5747 103.887 27.1916 102.3 26.4253C100.713 25.6318 99.4818 24.4688 98.6061 22.9364C97.7304 21.3766 97.2926 19.4748 97.2926 17.2309C97.2926 15.6164 97.5252 14.1934 97.9904 12.962C98.4829 11.7032 99.1534 10.6497 100.002 9.8014C100.85 8.9531 101.849 8.31003 102.998 7.8722C104.147 7.43437 105.379 7.21545 106.692 7.21545C108.416 7.21545 109.935 7.58487 111.248 8.32372C112.589 9.03519 113.629 10.034 114.368 11.3201C115.107 12.6063 115.476 14.0703 115.476 15.7121C115.476 16.3962 115.312 16.9025 114.984 17.2309C114.655 17.5319 114.19 17.7234 113.588 17.8055L100.043 19.7347Z" fill="#002250"/>
</svg>
