<svg width="30" height="33" viewBox="0 0 30 33" fill="none" xmlns="http://www.w3.org/2000/svg">
<circle cx="15" cy="15" r="15" fill="white"/>
<g filter="url(#filter0_d_107_6)">
<path d="M14.72 20.544C15.504 20.544 16.148 20.4693 16.652 20.32C17.1747 20.152 17.548 19.9933 17.772 19.844V15.784L14.3 16.148C13.3293 16.2227 12.6107 16.4373 12.144 16.792C11.6773 17.1467 11.444 17.66 11.444 18.332C11.444 19.0227 11.7147 19.564 12.256 19.956C12.816 20.348 13.6373 20.544 14.72 20.544ZM14.692 8.7C16.316 8.7 17.604 9.064 18.556 9.792C19.508 10.52 19.984 11.668 19.984 13.236V19.872C19.984 20.2827 19.9 20.6 19.732 20.824C19.5827 21.0293 19.3493 21.2253 19.032 21.412C18.584 21.6547 17.9867 21.8787 17.24 22.084C16.4933 22.2893 15.6533 22.392 14.72 22.392C12.9653 22.392 11.6027 22.0467 10.632 21.356C9.68 20.6653 9.204 19.6667 9.204 18.36C9.204 17.1467 9.60533 16.2227 10.408 15.588C11.2293 14.9347 12.3587 14.5427 13.796 14.412L17.772 14.02V13.236C17.772 12.3027 17.492 11.6213 16.932 11.192C16.372 10.7627 15.616 10.548 14.664 10.548C13.8987 10.548 13.1613 10.66 12.452 10.884C11.7613 11.108 11.1453 11.36 10.604 11.64C10.4547 11.5093 10.3147 11.36 10.184 11.192C10.072 11.0053 10.016 10.8187 10.016 10.632C10.016 10.1467 10.2867 9.77333 10.828 9.512C11.332 9.25067 11.9107 9.05467 12.564 8.924C13.236 8.77467 13.9453 8.7 14.692 8.7Z" fill="#1E1E1E"/>
</g>
<defs>
<filter id="filter0_d_107_6" x="3.20398" y="6.69995" width="22.78" height="25.6921" filterUnits="userSpaceOnUse" color-interpolation-filters="sRGB">
<feFlood flood-opacity="0" result="BackgroundImageFix"/>
<feColorMatrix in="SourceAlpha" type="matrix" values="0 0 0 0 0 0 0 0 0 0 0 0 0 0 0 0 0 0 127 0" result="hardAlpha"/>
<feOffset dy="4"/>
<feGaussianBlur stdDeviation="3"/>
<feComposite in2="hardAlpha" operator="out"/>
<feColorMatrix type="matrix" values="0 0 0 0 0 0 0 0 0 0 0 0 0 0 0 0 0 0 0.08 0"/>
<feBlend mode="normal" in2="BackgroundImageFix" result="effect1_dropShadow_107_6"/>
<feBlend mode="normal" in="SourceGraphic" in2="effect1_dropShadow_107_6" result="shape"/>
</filter>
</defs>
</svg>
